<svg version="1.1" id="Layer_1" xmlns="http://www.w3.org/2000/svg" xmlns:xlink="http://www.w3.org/1999/xlink" x="0px" y="0px"
	 width="100%" viewBox="0 0 1021 894" enable-background="new 0 0 1021 894" xml:space="preserve">
<path fill="#FFFFFF" opacity="1.000000" stroke="none" 
	d="
M620.000000,895.000000 
	C413.333344,895.000000 207.166672,895.000000 1.000000,895.000000 
	C1.000000,597.000000 1.000000,299.000000 1.000000,1.000000 
	C341.333344,1.000000 681.666687,1.000000 1022.000000,1.000000 
	C1022.000000,299.000000 1022.000000,597.000000 1022.000000,895.000000 
	C888.166687,895.000000 754.333313,895.000000 620.000000,895.000000 
M265.805389,338.827393 
	C266.411926,343.209503 267.018494,347.591614 267.625031,351.973755 
	C267.869049,354.135040 266.866455,356.419098 266.023163,358.760590 
	C253.506378,393.515137 250.080368,429.808594 249.247467,466.284882 
	C248.659012,492.055267 249.721069,517.913147 251.214584,543.664185 
	C252.250671,561.528503 253.761795,579.647949 264.246674,595.927795 
	C256.870422,596.406189 256.199890,601.524841 256.456207,607.282288 
	C252.245712,607.282288 248.598160,607.204285 244.954865,607.295593 
	C228.257111,607.713989 218.105652,618.105835 218.032822,634.841736 
	C217.996841,643.108582 218.026581,651.375732 218.026581,660.015259 
	C213.476669,660.015259 209.336197,659.892212 205.205200,660.038025 
	C192.164780,660.498047 181.698273,669.664978 180.975449,682.637939 
	C180.245255,695.743408 180.687195,708.926086 180.975235,722.067078 
	C181.037643,724.914551 182.216293,727.951843 183.594406,730.518555 
	C188.990204,740.568298 197.868668,744.062500 208.932449,744.057190 
	C373.066956,743.979187 537.201538,744.003723 701.336060,744.003967 
	C703.433777,744.003967 705.531494,744.003967 707.901367,744.003967 
	C707.901367,752.743103 707.651306,760.892090 707.960571,769.019775 
	C708.412781,780.904541 717.088867,790.549561 728.887634,792.198853 
	C733.968140,792.908997 739.182983,792.807556 744.337280,792.815796 
	C774.997803,792.864502 805.658691,792.887939 836.319153,792.815674 
	C853.295776,792.775696 863.890198,782.221619 863.968689,765.515686 
	C863.991394,760.683350 863.981201,755.850952 863.982239,751.018555 
	C863.986023,732.986816 853.953491,722.876587 835.915588,722.750793 
	C832.015625,722.723572 828.115234,722.746826 824.096741,722.746826 
	C824.096741,715.739502 824.101379,709.581482 824.095459,703.423462 
	C824.089539,697.258179 824.210449,691.088928 824.033386,684.928406 
	C823.629211,670.868469 813.282288,660.508240 799.242249,660.035828 
	C795.109985,659.896729 790.969055,660.014465 786.640442,660.014465 
	C786.640442,651.100220 786.791138,642.642456 786.608337,634.191895 
	C786.253540,617.788208 775.895691,607.569336 759.536926,607.283325 
	C756.071899,607.222717 752.604858,607.274475 748.629883,607.274475 
	C749.142212,601.088196 747.977722,596.169861 740.753723,595.933350 
	C742.483948,592.364929 743.932922,589.564636 745.219482,586.691589 
	C751.684570,572.253723 752.487610,556.652283 753.780151,541.302490 
	C757.213013,500.535889 756.944946,459.774109 751.965515,419.094849 
	C749.149353,396.089203 744.987061,373.436371 735.782288,351.672546 
	C740.700134,348.157349 739.205627,342.925232 740.241455,337.870758 
	C744.073608,337.852509 747.906372,337.868774 751.737915,337.810089 
	C769.124817,337.543793 780.019470,326.579559 780.096802,309.240601 
	C780.138184,299.951111 780.104126,290.661316 780.104126,280.813049 
	C799.385193,280.813049 818.217468,280.813049 838.367371,280.813049 
	C835.955627,279.041504 834.686096,278.056122 833.364746,277.146179 
	C805.675964,258.079285 777.976196,239.028366 750.288818,219.959564 
	C668.729736,163.788406 587.165833,107.624298 505.660126,51.375805 
	C503.001770,49.541214 501.283722,49.721741 498.746979,51.534378 
	C489.403442,58.210880 479.862457,64.610878 470.403320,71.125900 
	C370.471222,139.954666 270.539978,208.784683 170.617233,277.626984 
	C169.498535,278.397736 168.495071,279.335724 166.464905,280.987000 
	C186.528137,280.987000 205.265640,280.987000 224.390518,280.987000 
	C224.390518,283.519623 224.363113,285.648315 224.395309,287.776123 
	C224.528870,296.599426 224.248001,305.456116 224.930740,314.237457 
	C225.863037,326.228607 234.963394,335.598877 246.960373,337.151917 
	C253.203140,337.960083 259.573273,337.784515 265.805389,338.827393 
z"/>
<path fill="#0436FF" opacity="1.000000" stroke="none" 
	d="
M739.203857,338.042603 
	C739.205627,342.925232 740.700134,348.157349 735.782288,351.672546 
	C744.987061,373.436371 749.149353,396.089203 751.965515,419.094849 
	C756.944946,459.774109 757.213013,500.535889 753.780151,541.302490 
	C752.487610,556.652283 751.684570,572.253723 745.219482,586.691589 
	C743.932922,589.564636 742.483948,592.364929 740.753723,595.933350 
	C747.977722,596.169861 749.142212,601.088196 748.629883,607.274475 
	C752.604858,607.274475 756.071899,607.222717 759.536926,607.283325 
	C775.895691,607.569336 786.253540,617.788208 786.608337,634.191895 
	C786.791138,642.642456 786.640442,651.100220 786.640442,660.014465 
	C790.969055,660.014465 795.109985,659.896729 799.242249,660.035828 
	C813.282288,660.508240 823.629211,670.868469 824.033386,684.928406 
	C824.210449,691.088928 824.089539,697.258179 824.095459,703.423462 
	C824.101379,709.581482 824.096741,715.739502 824.096741,722.746826 
	C828.115234,722.746826 832.015625,722.723572 835.915588,722.750793 
	C853.953491,722.876587 863.986023,732.986816 863.982239,751.018555 
	C863.981201,755.850952 863.991394,760.683350 863.968689,765.515686 
	C863.890198,782.221619 853.295776,792.775696 836.319153,792.815674 
	C805.658691,792.887939 774.997803,792.864502 744.337280,792.815796 
	C739.182983,792.807556 733.968140,792.908997 728.887634,792.198853 
	C717.088867,790.549561 708.412781,780.904541 707.960571,769.019775 
	C707.651306,760.892090 707.901367,752.743103 707.901367,744.003967 
	C705.531494,744.003967 703.433777,744.003967 701.336060,744.003967 
	C537.201538,744.003723 373.066956,743.979187 208.932449,744.057190 
	C197.868668,744.062500 188.990204,740.568298 183.594406,730.518555 
	C182.216293,727.951843 181.037643,724.914551 180.975235,722.067078 
	C180.687195,708.926086 180.245255,695.743408 180.975449,682.637939 
	C181.698273,669.664978 192.164780,660.498047 205.205200,660.038025 
	C209.336197,659.892212 213.476669,660.015259 218.026581,660.015259 
	C218.026581,651.375732 217.996841,643.108582 218.032822,634.841736 
	C218.105652,618.105835 228.257111,607.713989 244.954865,607.295593 
	C248.598160,607.204285 252.245712,607.282288 256.456207,607.282288 
	C256.199890,601.524841 256.870422,596.406189 264.246674,595.927795 
	C253.761795,579.647949 252.250671,561.528503 251.214584,543.664185 
	C249.721069,517.913147 248.659012,492.055267 249.247467,466.284882 
	C250.080368,429.808594 253.506378,393.515137 266.023163,358.760590 
	C266.866455,356.419098 267.869049,354.135040 267.625031,351.973755 
	C267.018494,347.591614 266.411926,343.209503 266.245789,338.368927 
	C302.067108,337.932831 337.448029,337.955170 372.902954,338.424927 
	C372.918640,343.570709 374.082336,348.587036 369.321930,351.711121 
	C380.352783,377.195526 384.225433,403.868744 386.883057,430.698029 
	C390.353790,465.735596 390.645996,500.889801 387.714325,535.981567 
	C386.540436,550.033325 384.358704,564.045776 381.765961,577.913452 
	C380.614624,584.071716 377.308289,589.827087 374.868927,596.048950 
	C381.990082,596.473145 382.595093,601.607849 382.094360,607.028809 
	C462.710358,607.028809 542.620056,607.028809 622.497742,607.028809 
	C622.948608,604.381409 622.721375,601.565125 623.941467,599.691223 
	C625.221619,597.725037 627.889465,596.662231 629.955627,595.201294 
	C628.644836,592.547607 627.247437,589.905212 626.012939,587.188782 
	C619.392334,572.619507 618.586853,556.843628 617.273010,541.329102 
	C613.821350,500.570862 614.095337,459.812073 619.072998,419.143005 
	C621.908691,395.974365 626.075562,373.144867 635.331726,351.539459 
	C631.855530,346.925415 631.804749,346.704285 632.667480,337.956757 
	C668.481812,337.954956 703.842834,337.998779 739.203857,338.042603 
M403.499939,722.753845 
	C531.659180,722.753845 659.818359,722.753784 787.977600,722.754150 
	C790.977417,722.754150 793.978210,722.710510 796.976746,722.774048 
	C801.168640,722.862915 802.992432,720.917358 802.934265,716.686279 
	C802.808350,707.522339 802.905212,698.355408 802.898132,689.189697 
	C802.892578,681.981262 802.122803,681.225220 794.862244,681.225220 
	C600.373657,681.225952 405.885040,681.227112 211.396439,681.228088 
	C210.396500,681.228088 209.391953,681.289307 208.397430,681.215698 
	C203.808777,680.876160 201.697174,682.679626 201.828934,687.573914 
	C202.075500,696.733154 201.886261,705.903992 201.888657,715.070007 
	C201.890533,722.209839 202.440338,722.751709 209.511230,722.751648 
	C273.840790,722.751343 338.170380,722.752808 403.499939,722.753845 
M339.258118,594.062744 
	C346.651550,594.328247 352.473969,591.012390 355.743927,584.770996 
	C358.858459,578.826172 361.850220,572.324829 362.704315,565.782104 
	C365.072235,547.643494 367.074615,529.386780 367.800751,511.120239 
	C369.012299,480.641174 367.970032,450.171906 363.984375,419.862915 
	C361.574677,401.538513 358.611542,383.344666 352.100159,365.933655 
	C348.303802,355.782471 342.963226,352.030243 332.163696,351.930084 
	C324.333344,351.857483 316.501862,351.901215 308.670868,351.904205 
	C294.533783,351.909668 289.719635,355.373840 285.101868,368.608002 
	C278.312317,388.066284 275.246460,408.309418 273.149750,428.648193 
	C269.039917,468.514740 268.400757,508.468842 273.177490,548.328308 
	C274.471588,559.126831 276.656616,570.001709 280.043488,580.312439 
	C283.150452,589.771057 290.646637,594.579102 301.328735,594.171753 
	C313.640411,593.702209 325.983826,594.065918 339.258118,594.062744 
M728.939636,568.228455 
	C730.618042,551.510376 732.900513,534.826477 733.851135,518.067139 
	C735.931824,481.386139 734.521484,444.758362 728.715881,408.460663 
	C726.494263,394.570618 722.810852,380.847412 718.859192,367.321167 
	C715.401611,355.486206 709.691711,351.971283 697.508423,351.915436 
	C689.842285,351.880310 682.175842,351.891083 674.509583,351.905670 
	C661.144348,351.931061 656.312256,355.228027 651.912109,367.782623 
	C641.723633,396.852509 639.021179,427.225677 637.262268,457.624390 
	C635.393372,489.922943 636.145752,522.237671 640.105408,554.410034 
	C641.365967,564.652344 642.488342,574.950317 648.165649,583.981262 
	C652.249512,590.477539 657.810120,594.238098 665.857300,594.120300 
	C679.020447,593.927551 692.189880,593.958740 705.354065,594.115967 
	C712.951355,594.206726 718.729492,590.970398 722.301208,584.608582 
	C725.033752,579.741516 726.677063,574.263062 728.939636,568.228455 
M608.500000,628.793152 
	C489.522247,628.793152 370.544464,628.793091 251.566711,628.793518 
	C249.400452,628.793518 247.226212,628.921143 245.069672,628.778137 
	C240.982544,628.507202 239.289291,630.437500 239.339996,634.395203 
	C239.414734,640.226501 239.359055,646.059448 239.372635,651.891663 
	C239.390411,659.528503 239.864746,659.987000 247.675201,659.987000 
	C417.310059,659.986755 586.944885,659.986206 756.579773,659.985657 
	C757.746216,659.985657 758.913452,659.956909 760.078979,659.989502 
	C763.645813,660.089233 765.201843,658.377258 765.148804,654.811340 
	C765.057068,648.647400 765.150757,642.480774 765.144104,636.315308 
	C765.136230,628.948792 764.989197,628.796875 757.472229,628.796021 
	C708.148132,628.790405 658.824097,628.793091 608.500000,628.793152 
M840.585510,744.604248 
	C839.786072,744.408936 838.986816,744.043579 838.187195,744.042847 
	C803.560364,744.009705 768.933472,744.023987 734.306641,743.982666 
	C730.443054,743.978027 728.937134,745.859253 728.993408,749.539307 
	C729.069824,754.532410 728.998779,759.527588 729.018738,764.521790 
	C729.043213,770.628357 729.761353,771.344116 735.980835,771.346924 
	C759.620178,771.357544 783.259460,771.352783 806.898804,771.350281 
	C816.887329,771.349243 826.879028,771.466736 836.861450,771.217224 
	C838.677124,771.171814 841.998291,769.627869 842.008667,768.745178 
	C842.100952,760.878540 841.605347,753.005066 840.585510,744.604248 
z"/>
<path fill="#FF0606" opacity="1.000000" stroke="none" 
	d="
M372.828949,337.977539 
	C337.448029,337.955170 302.067108,337.932831 266.286011,337.981873 
	C259.573273,337.784515 253.203140,337.960083 246.960373,337.151917 
	C234.963394,335.598877 225.863037,326.228607 224.930740,314.237457 
	C224.248001,305.456116 224.528870,296.599426 224.395309,287.776123 
	C224.363113,285.648315 224.390518,283.519623 224.390518,280.987000 
	C205.265640,280.987000 186.528137,280.987000 166.464905,280.987000 
	C168.495071,279.335724 169.498535,278.397736 170.617233,277.626984 
	C270.539978,208.784683 370.471222,139.954666 470.403320,71.125900 
	C479.862457,64.610878 489.403442,58.210880 498.746979,51.534378 
	C501.283722,49.721741 503.001770,49.541214 505.660126,51.375805 
	C587.165833,107.624298 668.729736,163.788406 750.288818,219.959564 
	C777.976196,239.028366 805.675964,258.079285 833.364746,277.146179 
	C834.686096,278.056122 835.955627,279.041504 838.367371,280.813049 
	C818.217468,280.813049 799.385193,280.813049 780.104126,280.813049 
	C780.104126,290.661316 780.138184,299.951111 780.096802,309.240601 
	C780.019470,326.579559 769.124817,337.543793 751.737915,337.810089 
	C747.906372,337.868774 744.073608,337.852509 739.722656,337.956665 
	C703.842834,337.998779 668.481812,337.954956 632.381653,337.731293 
	C606.849976,324.525604 580.424622,316.427765 552.858643,312.122833 
	C521.938782,307.294128 490.905762,306.859467 459.847229,311.053619 
	C429.336151,315.173859 400.055969,323.252838 372.828949,337.977539 
M565.707153,118.767120 
	C544.625183,104.245499 523.543213,89.723869 502.312683,75.099937 
	C413.490723,136.270187 324.852234,197.314072 235.251694,259.020508 
	C413.880859,259.020508 591.032532,259.020508 769.390198,259.020508 
	C701.044312,211.955643 633.672974,165.561813 565.707153,118.767120 
M372.429718,314.163055 
	C380.554047,310.782501 388.532562,306.983673 396.827301,304.091888 
	C438.429291,289.588257 481.317078,284.908264 525.168823,287.685394 
	C563.403625,290.106750 600.092285,298.537415 634.773132,315.111847 
	C636.209351,315.798218 637.930481,316.204712 639.519958,316.207855 
	C677.013123,316.281830 714.506470,316.304230 751.999756,316.271027 
	C757.220398,316.266418 758.795715,314.615936 758.883789,309.330322 
	C758.983704,303.333221 758.888306,297.333008 758.889282,291.334137 
	C758.890930,281.219971 758.525269,280.841431 748.577820,280.841400 
	C585.772278,280.840942 422.966766,280.841125 260.161255,280.841522 
	C257.495056,280.841522 254.827377,280.903290 252.162964,280.835388 
	C247.729736,280.722382 245.822037,282.891174 245.880356,287.248932 
	C245.967316,293.746277 245.868210,300.245941 245.887253,306.744507 
	C245.913879,315.840973 246.376266,316.302185 255.577301,316.301697 
	C291.737671,316.299774 327.898193,316.318634 364.058197,316.199341 
	C366.616211,316.190887 369.170776,315.127075 372.429718,314.163055 
z"/>
<path fill="#FEFEFF" opacity="1.000000" stroke="none" 
	d="
M372.902954,338.424927 
	C400.055969,323.252838 429.336151,315.173859 459.847229,311.053619 
	C490.905762,306.859467 521.938782,307.294128 552.858643,312.122833 
	C580.424622,316.427765 606.849976,324.525604 631.928345,337.776917 
	C631.804749,346.704285 631.855530,346.925415 635.331726,351.539459 
	C626.075562,373.144867 621.908691,395.974365 619.072998,419.143005 
	C614.095337,459.812073 613.821350,500.570862 617.273010,541.329102 
	C618.586853,556.843628 619.392334,572.619507 626.012939,587.188782 
	C627.247437,589.905212 628.644836,592.547607 629.955627,595.201294 
	C627.889465,596.662231 625.221619,597.725037 623.941467,599.691223 
	C622.721375,601.565125 622.948608,604.381409 622.497742,607.028809 
	C542.620056,607.028809 462.710358,607.028809 382.094360,607.028809 
	C382.595093,601.607849 381.990082,596.473145 374.868927,596.048950 
	C377.308289,589.827087 380.614624,584.071716 381.765961,577.913452 
	C384.358704,564.045776 386.540436,550.033325 387.714325,535.981567 
	C390.645996,500.889801 390.353790,465.735596 386.883057,430.698029 
	C384.225433,403.868744 380.352783,377.195526 369.321930,351.711121 
	C374.082336,348.587036 372.918640,343.570709 372.902954,338.424927 
M597.195801,429.726593 
	C600.930115,423.574585 604.664429,417.422546 608.765808,410.665710 
	C596.739563,410.665710 585.765015,410.786682 574.796021,410.593689 
	C571.400513,410.533997 569.477234,411.486725 567.842529,414.658112 
	C560.914612,428.099243 553.702271,441.395172 546.465454,454.674255 
	C545.321045,456.774170 542.338196,458.447571 542.224487,460.433777 
	C541.741577,468.866180 542.019409,477.342102 542.019409,485.729523 
	C557.481384,487.998810 560.084656,490.281525 564.553101,505.207520 
	C567.122986,513.791809 569.568970,522.415894 572.337402,530.935425 
	C572.823853,532.432251 574.604187,534.570251 575.830566,534.599854 
	C587.431824,534.879333 599.042664,534.766235 611.086487,534.766235 
	C610.596130,533.030762 610.336609,531.772949 609.890625,530.585205 
	C604.170715,515.352600 598.477600,500.109558 592.663391,484.912903 
	C589.389771,476.356720 586.015381,467.805115 576.958984,463.212463 
	C583.782166,451.948303 590.318481,441.157837 597.195801,429.726593 
M439.610870,442.765167 
	C441.315460,442.301147 443.020020,441.837158 444.503723,441.433289 
	C444.503723,431.035675 444.503723,420.979095 444.503723,411.048462 
	C440.782837,411.048462 437.450562,410.862579 434.144562,411.078552 
	C412.519165,412.491333 398.239288,425.853149 397.282654,446.947449 
	C396.505920,464.074646 396.566101,481.288971 397.270508,498.422882 
	C398.379517,525.397766 420.929230,536.033325 444.625061,534.117981 
	C444.625061,524.053284 444.625061,513.980408 444.625061,503.992432 
	C435.432709,501.367889 432.932831,498.770874 432.741211,490.263153 
	C432.474884,478.437164 432.617950,466.600464 432.693817,454.769012 
	C432.725281,449.863831 434.241211,445.598572 439.610870,442.765167 
M512.532654,534.794800 
	C520.488159,534.794800 528.443665,534.794800 536.659912,534.794800 
	C536.659912,493.240692 536.659912,452.176117 536.659912,410.940796 
	C524.929382,410.940796 513.357666,410.940796 501.742798,410.940796 
	C501.742798,452.334137 501.742798,493.394379 501.742798,534.794739 
	C505.251160,534.794739 508.398987,534.794739 512.532654,534.794800 
M449.997742,522.485962 
	C449.997742,526.434387 449.997742,530.382812 449.997742,534.417847 
	C459.578979,534.417847 468.620819,534.417847 477.760376,534.417847 
	C477.760376,524.075195 477.760376,514.115173 477.760376,503.866699 
	C468.501709,503.866699 459.415985,503.866699 449.997742,503.866699 
	C449.997742,509.870819 449.997742,515.680481 449.997742,522.485962 
M449.998230,422.513153 
	C449.998230,428.790375 449.998230,435.067596 449.998230,441.479492 
	C459.548096,441.479492 468.579895,441.479492 477.578125,441.479492 
	C477.578125,431.059601 477.578125,420.998840 477.578125,410.907043 
	C468.300568,410.907043 459.375580,410.907043 449.998230,410.907043 
	C449.998230,414.599030 449.998230,418.058380 449.998230,422.513153 
z"/>
<path fill="#FBFCFF" opacity="1.000000" stroke="none" 
	d="
M402.999939,722.753784 
	C338.170380,722.752808 273.840790,722.751343 209.511230,722.751648 
	C202.440338,722.751709 201.890533,722.209839 201.888657,715.070007 
	C201.886261,705.903992 202.075500,696.733154 201.828934,687.573914 
	C201.697174,682.679626 203.808777,680.876160 208.397430,681.215698 
	C209.391953,681.289307 210.396500,681.228088 211.396439,681.228088 
	C405.885040,681.227112 600.373657,681.225952 794.862244,681.225220 
	C802.122803,681.225220 802.892578,681.981262 802.898132,689.189697 
	C802.905212,698.355408 802.808350,707.522339 802.934265,716.686279 
	C802.992432,720.917358 801.168640,722.862915 796.976746,722.774048 
	C793.978210,722.710510 790.977417,722.754150 787.977600,722.754150 
	C659.818359,722.753784 531.659180,722.753845 402.999939,722.753784 
z"/>
<path fill="#FEFEFF" opacity="1.000000" stroke="none" 
	d="
M338.785797,594.065247 
	C325.983826,594.065918 313.640411,593.702209 301.328735,594.171753 
	C290.646637,594.579102 283.150452,589.771057 280.043488,580.312439 
	C276.656616,570.001709 274.471588,559.126831 273.177490,548.328308 
	C268.400757,508.468842 269.039917,468.514740 273.149750,428.648193 
	C275.246460,408.309418 278.312317,388.066284 285.101868,368.608002 
	C289.719635,355.373840 294.533783,351.909668 308.670868,351.904205 
	C316.501862,351.901215 324.333344,351.857483 332.163696,351.930084 
	C342.963226,352.030243 348.303802,355.782471 352.100159,365.933655 
	C358.611542,383.344666 361.574677,401.538513 363.984375,419.862915 
	C367.970032,450.171906 369.012299,480.641174 367.800751,511.120239 
	C367.074615,529.386780 365.072235,547.643494 362.704315,565.782104 
	C361.850220,572.324829 358.858459,578.826172 355.743927,584.770996 
	C352.473969,591.012390 346.651550,594.328247 338.785797,594.065247 
z"/>
<path fill="#FEFEFF" opacity="1.000000" stroke="none" 
	d="
M728.872253,568.642456 
	C726.677063,574.263062 725.033752,579.741516 722.301208,584.608582 
	C718.729492,590.970398 712.951355,594.206726 705.354065,594.115967 
	C692.189880,593.958740 679.020447,593.927551 665.857300,594.120300 
	C657.810120,594.238098 652.249512,590.477539 648.165649,583.981262 
	C642.488342,574.950317 641.365967,564.652344 640.105408,554.410034 
	C636.145752,522.237671 635.393372,489.922943 637.262268,457.624390 
	C639.021179,427.225677 641.723633,396.852509 651.912109,367.782623 
	C656.312256,355.228027 661.144348,351.931061 674.509583,351.905670 
	C682.175842,351.891083 689.842285,351.880310 697.508423,351.915436 
	C709.691711,351.971283 715.401611,355.486206 718.859192,367.321167 
	C722.810852,380.847412 726.494263,394.570618 728.715881,408.460663 
	C734.521484,444.758362 735.931824,481.386139 733.851135,518.067139 
	C732.900513,534.826477 730.618042,551.510376 728.872253,568.642456 
z"/>
<path fill="#FFFFFF" opacity="1.000000" stroke="none" 
	d="
M609.000000,628.793091 
	C658.824097,628.793091 708.148132,628.790405 757.472229,628.796021 
	C764.989197,628.796875 765.136230,628.948792 765.144104,636.315308 
	C765.150757,642.480774 765.057068,648.647400 765.148804,654.811340 
	C765.201843,658.377258 763.645813,660.089233 760.078979,659.989502 
	C758.913452,659.956909 757.746216,659.985657 756.579773,659.985657 
	C586.944885,659.986206 417.310059,659.986755 247.675201,659.987000 
	C239.864746,659.987000 239.390411,659.528503 239.372635,651.891663 
	C239.359055,646.059448 239.414734,640.226501 239.339996,634.395203 
	C239.289291,630.437500 240.982544,628.507202 245.069672,628.778137 
	C247.226212,628.921143 249.400452,628.793518 251.566711,628.793518 
	C370.544464,628.793091 489.522247,628.793152 609.000000,628.793091 
z"/>
<path fill="#FEFEFF" opacity="1.000000" stroke="none" 
	d="
M840.934265,744.868896 
	C841.605347,753.005066 842.100952,760.878540 842.008667,768.745178 
	C841.998291,769.627869 838.677124,771.171814 836.861450,771.217224 
	C826.879028,771.466736 816.887329,771.349243 806.898804,771.350281 
	C783.259460,771.352783 759.620178,771.357544 735.980835,771.346924 
	C729.761353,771.344116 729.043213,770.628357 729.018738,764.521790 
	C728.998779,759.527588 729.069824,754.532410 728.993408,749.539307 
	C728.937134,745.859253 730.443054,743.978027 734.306641,743.982666 
	C768.933472,744.023987 803.560364,744.009705 838.187195,744.042847 
	C838.986816,744.043579 839.786072,744.408936 840.934265,744.868896 
z"/>
<path fill="#FEFDFE" opacity="1.000000" stroke="none" 
	d="
M566.004395,118.967560 
	C633.672974,165.561813 701.044312,211.955643 769.390198,259.020508 
	C591.032532,259.020508 413.880859,259.020508 235.251694,259.020508 
	C324.852234,197.314072 413.490723,136.270187 502.312683,75.099937 
	C523.543213,89.723869 544.625183,104.245499 566.004395,118.967560 
M548.751892,238.076279 
	C549.407715,237.845688 550.063477,237.615097 551.346375,237.431046 
	C552.230347,236.910248 553.114380,236.389465 554.600525,235.725510 
	C554.914673,235.197205 555.228760,234.668884 555.932068,233.919510 
	C556.148010,233.691208 556.258667,233.419983 556.760071,232.763870 
	C556.811890,232.175934 556.863708,231.587997 557.214844,230.323303 
	C558.237793,226.095459 557.772522,222.482971 553.121338,220.032410 
	C553.530884,219.292297 553.940430,218.552185 554.945618,217.295959 
	C555.266174,215.530838 555.586731,213.765701 556.034790,211.254196 
	C555.380798,209.492294 554.726807,207.730392 553.899841,205.381744 
	C553.061279,204.876358 552.222778,204.370972 550.958374,203.336029 
	C550.304932,203.220230 549.651489,203.104431 548.327942,202.653488 
	C547.590698,202.596313 546.853394,202.539139 545.527344,202.232285 
	C544.682983,202.264069 543.838623,202.295853 542.339111,202.155396 
	C541.895142,202.214310 541.451233,202.273224 540.427795,202.164108 
	C539.946838,202.425201 539.465942,202.686279 538.180969,202.755630 
	C534.874390,202.507812 531.567810,202.259995 528.333008,202.017563 
	C528.333008,214.649857 528.333008,226.344315 528.333008,238.433746 
	C531.757690,238.275314 534.868164,238.131424 538.625610,237.993073 
	C539.056335,238.010132 539.487122,238.027206 540.726440,238.320923 
	C542.144592,238.376953 543.562744,238.432999 545.428406,238.861389 
	C546.298462,238.651352 547.168457,238.441315 548.751892,238.076279 
M383.593201,237.991440 
	C384.020599,238.015717 384.447968,238.040009 385.793640,238.296951 
	C388.115387,238.282257 390.443390,238.371643 392.757721,238.232895 
	C399.104431,237.852432 404.639374,235.820175 406.934967,229.287750 
	C409.168060,222.933136 407.267731,217.578491 401.695557,213.702301 
	C406.025177,208.661987 407.286652,203.826401 405.518280,198.953491 
	C403.514893,193.432938 398.995331,191.251801 393.636230,190.510529 
	C390.860992,190.126694 388.017731,190.234543 384.393158,190.032257 
	C383.579895,190.030914 382.766632,190.029572 381.308441,190.145554 
	C380.875275,190.098755 380.442108,190.051956 379.498016,189.887207 
	C379.327881,189.927353 379.157776,189.967484 378.102234,190.113754 
	C376.181763,190.113754 374.261292,190.113754 372.282104,190.113754 
	C372.282104,206.529404 372.282104,222.321167 372.282104,238.457703 
	C376.056671,238.285721 379.503479,238.128693 383.593201,237.991440 
M427.582367,235.624771 
	C427.260345,240.199173 425.392151,243.263184 420.154663,242.854736 
	C420.154663,245.884720 420.154663,248.636536 420.154663,251.342972 
	C429.950195,252.756409 433.646942,250.518448 436.404266,241.624207 
	C437.238129,238.934540 437.974518,236.212936 438.692474,233.489334 
	C441.412964,223.169037 444.107574,212.841934 446.868195,202.302307 
	C442.902374,202.302307 439.609009,202.302307 436.139557,202.302307 
	C434.720612,207.912170 433.449219,213.410599 431.918671,218.835907 
	C430.757050,222.953491 429.265503,226.978012 427.768402,230.182938 
	C426.326630,223.452057 425.072754,216.673920 423.395264,210.002304 
	C421.320984,201.752640 421.168732,201.784683 412.697937,202.156876 
	C412.262543,202.176010 411.838470,202.453094 411.166260,202.698898 
	C413.870483,212.652847 416.371185,222.575180 419.362701,232.347244 
	C420.079834,234.689758 422.429504,236.532471 424.363800,239.039902 
	C425.722107,236.947037 426.380066,235.933243 427.582367,235.624771 
M644.344788,190.034698 
	C644.770752,189.753677 645.196777,189.472656 645.622803,189.191650 
	C644.399536,188.363434 643.220581,187.458954 641.946533,186.718018 
	C596.961914,160.557480 551.946350,134.450027 507.019806,108.190216 
	C503.585785,106.183006 501.061615,106.167168 497.620575,108.181992 
	C461.175171,129.521729 424.629211,150.689682 388.113068,171.908585 
	C377.508850,178.070480 366.911377,184.243988 356.310822,190.412186 
	C358.381256,190.686966 360.100891,190.221268 361.692230,189.480057 
	C407.316620,168.229538 452.911896,146.916229 498.595459,125.793831 
	C500.619934,124.857796 503.814789,124.788879 505.817810,125.714874 
	C551.807617,146.976089 597.707336,168.431900 644.344788,190.034698 
M601.997559,245.303879 
	C601.997559,246.911041 601.997559,248.518204 601.997559,250.149841 
	C605.755920,250.149841 608.961670,250.149841 612.173584,250.149841 
	C612.173584,233.974487 612.173584,218.216019 612.173584,202.508652 
	C608.614746,202.508652 605.396729,202.508652 601.997559,202.508652 
	C601.997559,216.713913 601.997559,230.532211 601.997559,245.303879 
M565.881958,203.070648 
	C565.881958,205.627853 565.881958,208.185059 565.881958,210.908447 
	C570.210693,210.908447 573.874573,211.092255 577.511902,210.860748 
	C581.813721,210.586975 583.512756,212.303223 583.381348,216.637604 
	C583.166382,223.723602 583.323181,230.820892 583.323181,238.084991 
	C586.962952,238.084991 590.015015,238.084991 593.237366,238.084991 
	C593.237366,229.154495 593.420349,220.538925 593.171387,211.935867 
	C593.011902,206.423203 589.259338,203.423401 584.220032,202.876068 
	C578.314331,202.234619 572.311462,202.487137 565.881958,203.070648 
M632.052612,231.172287 
	C632.303772,226.549927 632.733459,221.929016 632.771423,217.304901 
	C632.871216,205.152405 626.373657,200.117554 614.262939,202.747681 
	C614.262939,205.495987 614.262939,208.230865 614.262939,211.144302 
	C618.619324,211.193130 622.434082,211.004578 622.304504,217.216492 
	C622.066101,228.646866 622.383850,228.653488 614.229004,229.887421 
	C614.229004,232.566406 614.229004,235.281464 614.229004,238.366119 
	C621.032898,238.147827 627.976990,239.445068 632.052612,231.172287 
M479.131042,202.114334 
	C476.581299,202.452515 472.464691,201.945053 471.748169,203.272659 
	C468.316223,209.631561 462.382874,215.241394 464.034668,223.868423 
	C470.276337,224.677017 470.034058,230.288834 471.823334,234.565399 
	C472.425995,236.005844 473.630096,237.979355 474.850769,238.217957 
	C477.644684,238.764038 480.618317,238.390656 484.370789,238.390656 
	C481.018158,230.626648 478.090668,223.847214 474.808319,216.246078 
	C477.027771,212.487747 479.944702,207.548370 483.071350,202.253845 
	C481.579193,202.180038 480.768036,202.139908 479.131042,202.114334 
M492.206329,235.349182 
	C495.637115,236.661499 499.067902,237.973816 502.639954,239.340179 
	C504.032074,232.634460 504.006165,232.536896 500.455109,229.319778 
	C497.341797,226.499298 496.809418,213.567078 500.404327,211.656631 
	C505.181091,209.118088 503.014038,205.664307 503.292969,202.373718 
	C496.545044,202.170776 491.952728,203.781143 490.338715,208.057571 
	C486.950531,217.034958 486.386902,226.107071 492.206329,235.349182 
M520.207947,217.660858 
	C519.537109,206.190643 515.679688,202.200653 504.287323,202.363693 
	C505.144470,205.331589 505.156067,208.794250 506.890015,210.630829 
	C510.054840,213.983063 512.023621,226.339844 508.154846,228.740646 
	C503.410248,231.684906 505.253418,235.044769 505.382385,238.668213 
	C517.077271,237.119553 519.808777,234.096634 520.210327,222.586563 
	C520.256592,221.260834 520.222534,219.932297 520.207947,217.660858 
M462.135345,233.432724 
	C462.135345,223.075470 462.135345,212.718216 462.135345,202.491318 
	C458.274994,202.491318 455.222595,202.491318 452.227234,202.491318 
	C452.227234,214.591217 452.227234,226.304764 452.227234,238.055389 
	C455.577484,238.055389 458.641327,238.055389 462.138428,238.055389 
	C462.138428,236.660568 462.138428,235.538727 462.135345,233.432724 
M581.974609,235.324753 
	C581.974609,233.867722 581.974609,232.410690 581.974609,231.462036 
	C579.320129,229.041290 573.963989,232.736221 573.953857,227.121323 
	C573.943604,221.431274 579.347046,225.353073 581.655396,223.236664 
	C581.655396,221.147629 581.655396,218.945312 581.655396,216.308502 
	C578.545410,216.457169 575.765442,216.550034 572.991333,216.731857 
	C568.645630,217.016693 565.343506,218.720627 564.271179,223.351715 
	C563.037842,228.678436 564.286987,234.936325 568.078979,236.190033 
	C572.332458,237.596313 577.169617,237.239578 581.757812,237.583832 
	C581.793396,237.586517 581.898010,236.669373 581.974609,235.324753 
z"/>
<path fill="#FFFEFE" opacity="1.000000" stroke="none" 
	d="
M372.078308,314.358521 
	C369.170776,315.127075 366.616211,316.190887 364.058197,316.199341 
	C327.898193,316.318634 291.737671,316.299774 255.577301,316.301697 
	C246.376266,316.302185 245.913879,315.840973 245.887253,306.744507 
	C245.868210,300.245941 245.967316,293.746277 245.880356,287.248932 
	C245.822037,282.891174 247.729736,280.722382 252.162964,280.835388 
	C254.827377,280.903290 257.495056,280.841522 260.161255,280.841522 
	C422.966766,280.841125 585.772278,280.840942 748.577820,280.841400 
	C758.525269,280.841431 758.890930,281.219971 758.889282,291.334137 
	C758.888306,297.333008 758.983704,303.333221 758.883789,309.330322 
	C758.795715,314.615936 757.220398,316.266418 751.999756,316.271027 
	C714.506470,316.304230 677.013123,316.281830 639.519958,316.207855 
	C637.930481,316.204712 636.209351,315.798218 634.773132,315.111847 
	C600.092285,298.537415 563.403625,290.106750 525.168823,287.685394 
	C481.317078,284.908264 438.429291,289.588257 396.827301,304.091888 
	C388.532562,306.983673 380.554047,310.782501 372.078308,314.358521 
z"/>
<path fill="#0436FF" opacity="1.000000" stroke="none" 
	d="
M597.025269,430.046967 
	C590.318481,441.157837 583.782166,451.948303 576.958984,463.212463 
	C586.015381,467.805115 589.389771,476.356720 592.663391,484.912903 
	C598.477600,500.109558 604.170715,515.352600 609.890625,530.585205 
	C610.336609,531.772949 610.596130,533.030762 611.086487,534.766235 
	C599.042664,534.766235 587.431824,534.879333 575.830566,534.599854 
	C574.604187,534.570251 572.823853,532.432251 572.337402,530.935425 
	C569.568970,522.415894 567.122986,513.791809 564.553101,505.207520 
	C560.084656,490.281525 557.481384,487.998810 542.019409,485.729523 
	C542.019409,477.342102 541.741577,468.866180 542.224487,460.433777 
	C542.338196,458.447571 545.321045,456.774170 546.465454,454.674255 
	C553.702271,441.395172 560.914612,428.099243 567.842529,414.658112 
	C569.477234,411.486725 571.400513,410.533997 574.796021,410.593689 
	C585.765015,410.786682 596.739563,410.665710 608.765808,410.665710 
	C604.664429,417.422546 600.930115,423.574585 597.025269,430.046967 
z"/>
<path fill="#0436FF" opacity="1.000000" stroke="none" 
	d="
M439.242493,442.907776 
	C434.241211,445.598572 432.725281,449.863831 432.693817,454.769012 
	C432.617950,466.600464 432.474884,478.437164 432.741211,490.263153 
	C432.932831,498.770874 435.432709,501.367889 444.625061,503.992432 
	C444.625061,513.980408 444.625061,524.053284 444.625061,534.117981 
	C420.929230,536.033325 398.379517,525.397766 397.270508,498.422882 
	C396.566101,481.288971 396.505920,464.074646 397.282654,446.947449 
	C398.239288,425.853149 412.519165,412.491333 434.144562,411.078552 
	C437.450562,410.862579 440.782837,411.048462 444.503723,411.048462 
	C444.503723,420.979095 444.503723,431.035675 444.503723,441.433289 
	C443.020020,441.837158 441.315460,442.301147 439.242493,442.907776 
z"/>
<path fill="#0638FF" opacity="1.000000" stroke="none" 
	d="
M512.039734,534.794800 
	C508.398987,534.794739 505.251160,534.794739 501.742798,534.794739 
	C501.742798,493.394379 501.742798,452.334137 501.742798,410.940796 
	C513.357666,410.940796 524.929382,410.940796 536.659912,410.940796 
	C536.659912,452.176117 536.659912,493.240692 536.659912,534.794800 
	C528.443665,534.794800 520.488159,534.794800 512.039734,534.794800 
z"/>
<path fill="#0537FF" opacity="1.000000" stroke="none" 
	d="
M449.997742,521.988037 
	C449.997742,515.680481 449.997742,509.870819 449.997742,503.866699 
	C459.415985,503.866699 468.501709,503.866699 477.760376,503.866699 
	C477.760376,514.115173 477.760376,524.075195 477.760376,534.417847 
	C468.620819,534.417847 459.578979,534.417847 449.997742,534.417847 
	C449.997742,530.382812 449.997742,526.434387 449.997742,521.988037 
z"/>
<path fill="#0537FF" opacity="1.000000" stroke="none" 
	d="
M449.998230,422.015442 
	C449.998230,418.058380 449.998230,414.599030 449.998230,410.907043 
	C459.375580,410.907043 468.300568,410.907043 477.578125,410.907043 
	C477.578125,420.998840 477.578125,431.059601 477.578125,441.479492 
	C468.579895,441.479492 459.548096,441.479492 449.998230,441.479492 
	C449.998230,435.067596 449.998230,428.790375 449.998230,422.015442 
z"/>
<path fill="#FF0A0A" opacity="1.000000" stroke="none" 
	d="
M643.984375,189.943085 
	C597.707336,168.431900 551.807617,146.976089 505.817810,125.714874 
	C503.814789,124.788879 500.619934,124.857796 498.595459,125.793831 
	C452.911896,146.916229 407.316620,168.229538 361.692230,189.480057 
	C360.100891,190.221268 358.381256,190.686966 356.310822,190.412186 
	C366.911377,184.243988 377.508850,178.070480 388.113068,171.908585 
	C424.629211,150.689682 461.175171,129.521729 497.620575,108.181992 
	C501.061615,106.167168 503.585785,106.183006 507.019806,108.190216 
	C551.946350,134.450027 596.961914,160.557480 641.946533,186.718018 
	C643.220581,187.458954 644.399536,188.363434 645.622803,189.191635 
	C645.196777,189.472656 644.770752,189.753677 643.984375,189.943085 
z"/>
<path fill="#0939FF" opacity="1.000000" stroke="none" 
	d="
M385.205200,190.120239 
	C388.017731,190.234543 390.860992,190.126694 393.636230,190.510529 
	C398.995331,191.251801 403.514893,193.432938 405.518280,198.953491 
	C407.286652,203.826401 406.025177,208.661987 401.695557,213.702301 
	C407.267731,217.578491 409.168060,222.933136 406.934967,229.287750 
	C404.639374,235.820175 399.104431,237.852432 392.757721,238.232895 
	C390.443390,238.371643 388.115387,238.282257 385.337830,237.724991 
	C384.907837,234.428345 384.933655,231.703659 385.394836,228.895813 
	C387.973480,228.758011 390.129059,228.828018 392.257202,228.618896 
	C395.301147,228.319794 396.906616,226.135712 396.205933,223.501495 
	C395.742035,221.757645 393.764313,219.825348 392.016663,219.168716 
	C389.983246,218.404709 387.461121,218.941483 385.055908,218.477127 
	C385.075623,215.090347 385.190521,212.140152 385.726929,209.219208 
	C387.619507,209.218597 389.408295,209.706177 390.489899,209.042053 
	C392.277435,207.944473 394.442078,206.284027 394.825531,204.510101 
	C395.062592,203.413406 392.533508,201.153000 390.811188,200.361420 
	C389.166565,199.605515 386.958405,200.075668 384.932709,199.558426 
	C384.980042,196.113403 385.092621,193.116837 385.205200,190.120239 
z"/>
<path fill="#0939FF" opacity="1.000000" stroke="none" 
	d="
M427.920776,231.043945 
	C429.265503,226.978012 430.757050,222.953491 431.918671,218.835907 
	C433.449219,213.410599 434.720612,207.912170 436.139557,202.302307 
	C439.609009,202.302307 442.902374,202.302307 446.868195,202.302307 
	C444.107574,212.841934 441.412964,223.169037 438.692474,233.489334 
	C437.974518,236.212936 437.238129,238.934540 436.404266,241.624207 
	C433.646942,250.518448 429.950195,252.756409 420.154663,251.342972 
	C420.154663,248.636536 420.154663,245.884720 420.154663,242.854736 
	C425.392151,243.263184 427.260345,240.199173 427.285492,235.305695 
	C426.988617,234.986603 426.963135,235.066010 427.368896,234.964935 
	C427.854736,233.553116 427.934814,232.242371 427.988464,230.957245 
	C427.962006,230.982880 427.920776,231.043945 427.920776,231.043945 
z"/>
<path fill="#0536FF" opacity="1.000000" stroke="none" 
	d="
M601.997559,244.827209 
	C601.997559,230.532211 601.997559,216.713913 601.997559,202.508652 
	C605.396729,202.508652 608.614746,202.508652 612.173584,202.508652 
	C612.173584,218.216019 612.173584,233.974487 612.173584,250.149841 
	C608.961670,250.149841 605.755920,250.149841 601.997559,250.149841 
	C601.997559,248.518204 601.997559,246.911041 601.997559,244.827209 
z"/>
<path fill="#0B3CFF" opacity="1.000000" stroke="none" 
	d="
M566.116333,202.711273 
	C572.311462,202.487137 578.314331,202.234619 584.220032,202.876068 
	C589.259338,203.423401 593.011902,206.423203 593.171387,211.935867 
	C593.420349,220.538925 593.237366,229.154495 593.237366,238.084991 
	C590.015015,238.084991 586.962952,238.084991 583.323181,238.084991 
	C583.323181,230.820892 583.166382,223.723602 583.381348,216.637604 
	C583.512756,212.303223 581.813721,210.586975 577.511902,210.860748 
	C573.874573,211.092255 570.210693,210.908447 565.881958,210.908447 
	C565.881958,208.185059 565.881958,205.627853 566.116333,202.711273 
z"/>
<path fill="#0335FF" opacity="1.000000" stroke="none" 
	d="
M380.008942,190.005157 
	C380.442108,190.051956 380.875275,190.098755 381.953369,190.360291 
	C382.775848,194.061386 382.953430,197.547760 383.093628,201.473129 
	C383.085449,204.262100 383.114655,206.612076 383.054932,209.412491 
	C383.025940,212.920792 383.085876,215.978653 383.095703,219.484741 
	C383.078857,222.939835 383.112122,225.946701 383.054382,229.398285 
	C382.959015,232.552551 382.954651,235.262115 382.950317,237.971649 
	C379.503479,238.128693 376.056671,238.285721 372.282104,238.457703 
	C372.282104,222.321167 372.282104,206.529404 372.282104,190.113754 
	C374.261292,190.113754 376.181763,190.113754 378.652161,190.165222 
	C379.202057,190.216705 379.647064,190.235031 379.647064,190.235031 
	C379.647064,190.235031 380.008942,190.005157 380.008942,190.005157 
z"/>
<path fill="#0C3BFF" opacity="1.000000" stroke="none" 
	d="
M631.957764,231.561829 
	C627.976990,239.445068 621.032898,238.147827 614.229004,238.366119 
	C614.229004,235.281464 614.229004,232.566406 614.229004,229.887421 
	C622.383850,228.653488 622.066101,228.646866 622.304504,217.216492 
	C622.434082,211.004578 618.619324,211.193130 614.262939,211.144302 
	C614.262939,208.230865 614.262939,205.495987 614.262939,202.747681 
	C626.373657,200.117554 632.871216,205.152405 632.771423,217.304901 
	C632.733459,221.929016 632.303772,226.549927 631.957764,231.561829 
z"/>
<path fill="#0A3AFF" opacity="1.000000" stroke="none" 
	d="
M479.543976,202.107056 
	C480.768036,202.139908 481.579193,202.180038 483.071350,202.253845 
	C479.944702,207.548370 477.027771,212.487747 474.808319,216.246078 
	C478.090668,223.847214 481.018158,230.626648 484.370789,238.390656 
	C480.618317,238.390656 477.644684,238.764038 474.850769,238.217957 
	C473.630096,237.979355 472.425995,236.005844 471.823334,234.565399 
	C470.034058,230.288834 470.276337,224.677017 464.034668,223.868423 
	C462.382874,215.241394 468.316223,209.631561 471.748169,203.272659 
	C472.464691,201.945053 476.581299,202.452515 479.543976,202.107056 
z"/>
<path fill="#0939FF" opacity="1.000000" stroke="none" 
	d="
M491.982666,235.042145 
	C486.386902,226.107071 486.950531,217.034958 490.338715,208.057571 
	C491.952728,203.781143 496.545044,202.170776 503.292969,202.373718 
	C503.014038,205.664307 505.181091,209.118088 500.404327,211.656631 
	C496.809418,213.567078 497.341797,226.499298 500.455109,229.319778 
	C504.006165,232.536896 504.032074,232.634460 502.639954,239.340179 
	C499.067902,237.973816 495.637115,236.661499 491.982666,235.042145 
z"/>
<path fill="#0838FF" opacity="1.000000" stroke="none" 
	d="
M520.216858,218.132965 
	C520.222534,219.932297 520.256592,221.260834 520.210327,222.586563 
	C519.808777,234.096634 517.077271,237.119553 505.382385,238.668213 
	C505.253418,235.044769 503.410248,231.684906 508.154846,228.740646 
	C512.023621,226.339844 510.054840,213.983063 506.890015,210.630829 
	C505.156067,208.794250 505.144470,205.331589 504.287323,202.363693 
	C515.679688,202.200653 519.537109,206.190643 520.216858,218.132965 
z"/>
<path fill="#0537FF" opacity="1.000000" stroke="none" 
	d="
M537.978577,237.987534 
	C534.868164,238.131424 531.757690,238.275314 528.333008,238.433746 
	C528.333008,226.344315 528.333008,214.649857 528.333008,202.017563 
	C531.567810,202.259995 534.874390,202.507812 538.587646,203.283112 
	C538.994873,205.818344 538.995422,207.826080 538.653076,210.065399 
	C538.261353,212.514694 538.212463,214.732452 538.068237,217.386642 
	C538.038452,219.900345 538.104004,221.977585 538.123596,224.483704 
	C538.107056,226.923782 538.136475,228.935013 538.070312,231.379456 
	C537.975952,233.870972 537.977234,235.929245 537.978577,237.987534 
z"/>
<path fill="#0435FF" opacity="1.000000" stroke="none" 
	d="
M462.136902,233.924805 
	C462.138428,235.538727 462.138428,236.660568 462.138428,238.055389 
	C458.641327,238.055389 455.577484,238.055389 452.227234,238.055389 
	C452.227234,226.304764 452.227234,214.591217 452.227234,202.491318 
	C455.222595,202.491318 458.274994,202.491318 462.135345,202.491318 
	C462.135345,212.718216 462.135345,223.075470 462.136902,233.924805 
z"/>
<path fill="#0537FF" opacity="1.000000" stroke="none" 
	d="
M546.116150,202.481964 
	C546.853394,202.539139 547.590698,202.596313 548.875427,203.086090 
	C550.076660,203.634323 550.730469,203.749954 551.384216,203.865585 
	C552.222778,204.370972 553.061279,204.876358 553.711304,205.886993 
	C554.317627,208.261673 555.112427,210.131134 555.907227,212.000580 
	C555.586731,213.765701 555.266174,215.530838 554.488953,217.204865 
	C549.196045,213.925781 552.341980,219.522644 550.785217,220.172821 
	C550.134216,220.444702 549.830566,221.891602 549.710449,222.847183 
	C549.680847,223.083176 550.985168,223.486740 551.676331,223.813293 
	C552.178955,222.733994 552.681519,221.654709 553.184082,220.575424 
	C557.772522,222.482971 558.237793,226.095459 556.764526,230.704620 
	C556.297424,231.759247 556.280762,232.432526 556.264038,233.105820 
	C556.258667,233.419983 556.148010,233.691208 555.417175,234.089172 
	C554.600952,234.795456 554.299622,235.332062 553.998352,235.868683 
	C553.114380,236.389465 552.230347,236.910248 550.629639,237.266846 
	C546.961792,233.929565 543.409485,236.089615 540.044067,235.626007 
	C540.021057,234.502823 540.064941,233.751480 540.429932,232.945160 
	C541.149109,232.207855 541.547058,231.525513 542.282593,230.707031 
	C544.085754,230.396744 545.551453,230.222626 547.185303,230.265457 
	C547.755676,230.435608 548.157959,230.388794 548.560181,230.341980 
	C548.306946,229.867844 548.053650,229.393707 547.805969,228.534698 
	C548.432922,223.067795 544.522766,224.196518 541.794922,223.469147 
	C541.607117,223.373215 541.393188,223.548996 540.835571,223.770355 
	C540.270142,223.750595 540.048401,223.685257 539.876465,223.143051 
	C539.920837,220.762360 539.915344,218.858505 540.282471,216.810425 
	C542.554749,216.093323 544.454407,215.520462 546.519653,214.777222 
	C546.859131,214.325623 546.929016,214.020569 546.775146,213.400574 
	C545.770508,212.042999 544.885742,210.976517 543.984009,209.669281 
	C543.817078,209.171432 543.667175,208.914368 543.517273,208.657288 
	C543.344421,209.062744 543.171570,209.468201 542.668335,209.946609 
	C541.892578,209.966476 541.447205,209.913391 541.036804,209.525497 
	C541.050293,206.904510 541.028748,204.618332 541.007202,202.332123 
	C541.451233,202.273224 541.895142,202.214310 542.681458,202.598038 
	C543.607849,203.625412 544.191895,204.210129 544.775940,204.794846 
	C545.222656,204.023880 545.669434,203.252930 546.116150,202.481964 
z"/>
<path fill="#0C3BFF" opacity="1.000000" stroke="none" 
	d="
M427.013336,234.953018 
	C426.380066,235.933243 425.722107,236.947037 424.363800,239.039902 
	C422.429504,236.532471 420.079834,234.689758 419.362701,232.347244 
	C416.371185,222.575180 413.870483,212.652847 411.166260,202.698898 
	C411.838470,202.453094 412.262543,202.176010 412.697937,202.156876 
	C421.168732,201.784683 421.320984,201.752640 423.395264,210.002304 
	C425.072754,216.673920 426.326630,223.452057 427.844604,230.613434 
	C427.920776,231.043945 427.962006,230.982880 427.656891,231.145874 
	C427.222229,232.561249 427.092682,233.813629 426.963135,235.066010 
	C426.963135,235.066010 426.988617,234.986603 427.013336,234.953018 
z"/>
<path fill="#0C3BFF" opacity="1.000000" stroke="none" 
	d="
M581.972534,235.753235 
	C581.898010,236.669373 581.793396,237.586517 581.757812,237.583832 
	C577.169617,237.239578 572.332458,237.596313 568.078979,236.190033 
	C564.286987,234.936325 563.037842,228.678436 564.271179,223.351715 
	C565.343506,218.720627 568.645630,217.016693 572.991333,216.731857 
	C575.765442,216.550034 578.545410,216.457169 581.655396,216.308502 
	C581.655396,218.945312 581.655396,221.147629 581.655396,223.236664 
	C579.347046,225.353073 573.943604,221.431274 573.953857,227.121323 
	C573.963989,232.736221 579.320129,229.041290 581.974609,231.462036 
	C581.974609,232.410690 581.974609,233.867722 581.972534,235.753235 
z"/>
<path fill="#0838FF" opacity="1.000000" stroke="none" 
	d="
M553.152710,220.303925 
	C552.681519,221.654709 552.178955,222.733994 551.676331,223.813293 
	C550.985168,223.486740 549.680847,223.083176 549.710449,222.847183 
	C549.830566,221.891602 550.134216,220.444702 550.785217,220.172821 
	C552.341980,219.522644 549.196045,213.925781 554.191162,217.462921 
	C553.940430,218.552185 553.530884,219.292297 553.152710,220.303925 
z"/>
<path fill="#CBD6FF" opacity="1.000000" stroke="none" 
	d="
M383.130981,201.034149 
	C382.953430,197.547760 382.775848,194.061386 382.275818,190.301620 
	C382.766632,190.029572 383.579895,190.030914 384.799194,190.076263 
	C385.092621,193.116837 384.980042,196.113403 384.780579,199.793243 
	C384.172791,200.662399 383.651886,200.848282 383.130981,201.034149 
z"/>
<path fill="#0838FF" opacity="1.000000" stroke="none" 
	d="
M540.111084,235.997818 
	C543.409485,236.089615 546.961792,233.929565 550.316101,237.243591 
	C550.063477,237.615097 549.407715,237.845688 548.009521,238.090057 
	C546.505066,238.232224 545.742981,238.360626 544.980896,238.489044 
	C543.562744,238.432999 542.144592,238.376953 540.339966,237.839600 
	C540.005981,236.904800 540.058533,236.451309 540.111084,235.997818 
z"/>
<path fill="#BFCDFF" opacity="1.000000" stroke="none" 
	d="
M383.271759,237.981552 
	C382.954651,235.262115 382.959015,232.552551 383.356964,229.403748 
	C384.153534,228.969315 384.556488,228.974136 384.959473,228.978973 
	C384.933655,231.703659 384.907837,234.428345 384.878662,237.608673 
	C384.447968,238.040009 384.020599,238.015717 383.271759,237.981552 
z"/>
<path fill="#0838FF" opacity="1.000000" stroke="none" 
	d="
M540.717529,202.248123 
	C541.028748,204.618332 541.050293,206.904510 540.705200,209.596542 
	C539.890991,209.946198 539.443481,209.890015 538.995911,209.833832 
	C538.995422,207.826080 538.994873,205.818344 538.989685,203.378967 
	C539.465942,202.686279 539.946838,202.425201 540.717529,202.248123 
z"/>
<path fill="#BBC9FF" opacity="1.000000" stroke="none" 
	d="
M540.044128,235.626007 
	C540.058533,236.451309 540.005981,236.904800 539.935669,237.701263 
	C539.487122,238.027206 539.056335,238.010132 538.302124,237.990295 
	C537.977234,235.929245 537.975952,233.870972 538.355103,231.377197 
	C539.114685,230.942383 539.493958,230.943069 539.891235,231.289291 
	C539.975891,232.089920 540.042358,232.545029 540.108826,233.000122 
	C540.064941,233.751480 540.021057,234.502823 540.044128,235.626007 
z"/>
<path fill="#0838FF" opacity="1.000000" stroke="none" 
	d="
M555.971008,211.627380 
	C555.112427,210.131134 554.317627,208.261673 553.797852,206.180359 
	C554.726807,207.730392 555.380798,209.492294 555.971008,211.627380 
z"/>
<path fill="#0838FF" opacity="1.000000" stroke="none" 
	d="
M545.821777,202.357117 
	C545.669434,203.252930 545.222656,204.023880 544.775940,204.794846 
	C544.191895,204.210129 543.607849,203.625412 543.009033,202.684174 
	C543.838623,202.295853 544.682983,202.264069 545.821777,202.357117 
z"/>
<path fill="#0838FF" opacity="1.000000" stroke="none" 
	d="
M556.512085,232.934845 
	C556.280762,232.432526 556.297424,231.759247 556.614807,231.042999 
	C556.863708,231.587997 556.811890,232.175934 556.512085,232.934845 
z"/>
<path fill="#BBC9FF" opacity="1.000000" stroke="none" 
	d="
M545.204651,238.675217 
	C545.742981,238.360626 546.505066,238.232224 547.652832,238.167542 
	C547.168457,238.441315 546.298462,238.651352 545.204651,238.675217 
z"/>
<path fill="#0838FF" opacity="1.000000" stroke="none" 
	d="
M554.299438,235.797089 
	C554.299622,235.332062 554.600952,234.795456 555.222534,234.199707 
	C555.228760,234.668884 554.914673,235.197205 554.299438,235.797089 
z"/>
<path fill="#0838FF" opacity="1.000000" stroke="none" 
	d="
M551.171265,203.600800 
	C550.730469,203.749954 550.076660,203.634323 549.210449,203.253662 
	C549.651489,203.104431 550.304932,203.220230 551.171265,203.600800 
z"/>
<path fill="#CBD6FF" opacity="1.000000" stroke="none" 
	d="
M379.753479,189.946182 
	C380.008942,190.005157 379.647064,190.235031 379.647064,190.235031 
	C379.647064,190.235031 379.202057,190.216705 379.094849,190.112152 
	C379.157776,189.967484 379.327881,189.927353 379.753479,189.946182 
z"/>
<path fill="#FBFCFF" opacity="1.000000" stroke="none" 
	d="
M385.394836,228.895813 
	C384.556488,228.974136 384.153534,228.969315 383.447968,228.959030 
	C383.112122,225.946701 383.078857,222.939835 383.430664,219.472229 
	C384.260864,218.978912 384.705994,218.946335 385.151093,218.913727 
	C387.461121,218.941483 389.983246,218.404709 392.016663,219.168716 
	C393.764313,219.825348 395.742035,221.757645 396.205933,223.501495 
	C396.906616,226.135712 395.301147,228.319794 392.257202,228.618896 
	C390.129059,228.828018 387.973480,228.758011 385.394836,228.895813 
z"/>
<path fill="#FEFEFF" opacity="1.000000" stroke="none" 
	d="
M383.093628,201.473145 
	C383.651886,200.848282 384.172791,200.662399 384.845825,200.241699 
	C386.958405,200.075668 389.166565,199.605515 390.811188,200.361420 
	C392.533508,201.153000 395.062592,203.413406 394.825531,204.510101 
	C394.442078,206.284027 392.277435,207.944473 390.489899,209.042053 
	C389.408295,209.706177 387.619507,209.218597 385.371033,209.147064 
	C384.110352,209.017807 383.627075,208.989929 383.143829,208.962051 
	C383.114655,206.612076 383.085449,204.262100 383.093628,201.473145 
z"/>
<path fill="#CBD6FF" opacity="1.000000" stroke="none" 
	d="
M383.054932,209.412491 
	C383.627075,208.989929 384.110352,209.017807 384.949493,209.117828 
	C385.190521,212.140152 385.075623,215.090347 385.055908,218.477142 
	C384.705994,218.946335 384.260864,218.978912 383.480774,219.024002 
	C383.085876,215.978653 383.025940,212.920792 383.054932,209.412491 
z"/>
<path fill="#FEFDFE" opacity="1.000000" stroke="none" 
	d="
M427.368896,234.964935 
	C427.092682,233.813629 427.222229,232.561249 427.683350,231.120239 
	C427.934814,232.242371 427.854736,233.553116 427.368896,234.964935 
z"/>
<path fill="#F7F8FF" opacity="1.000000" stroke="none" 
	d="
M539.873169,230.943756 
	C539.493958,230.943069 539.114685,230.942383 538.450684,230.943970 
	C538.136475,228.935013 538.107056,226.923782 538.343872,224.468933 
	C539.015625,223.890167 539.421082,223.755035 539.826599,223.619904 
	C540.048401,223.685257 540.270142,223.750595 540.982056,223.792023 
	C541.472290,223.768127 541.768677,223.740829 541.768677,223.740829 
	C544.522766,224.196518 548.432922,223.067795 547.608765,228.666931 
	C547.237671,229.454788 547.108093,229.742935 547.017151,230.048492 
	C545.551453,230.222626 544.085754,230.396744 541.937744,230.596329 
	C540.794739,230.729095 540.333923,230.836426 539.873169,230.943756 
z"/>
<path fill="#F2F5FF" opacity="1.000000" stroke="none" 
	d="
M538.653076,210.065399 
	C539.443481,209.890015 539.890991,209.946198 540.670166,209.931335 
	C541.447205,209.913391 541.892578,209.966476 542.916687,210.017868 
	C543.663879,209.980804 543.832458,209.945435 544.000977,209.910034 
	C544.885742,210.976517 545.770508,212.042999 546.588501,213.559052 
	C546.327148,214.296860 546.271240,214.609848 546.354004,214.947601 
	C544.454407,215.520462 542.554749,216.093323 539.991516,216.799637 
	C538.939758,216.938797 538.551697,216.944504 538.163574,216.950195 
	C538.212463,214.732452 538.261353,212.514694 538.653076,210.065399 
z"/>
<path fill="#BBC9FF" opacity="1.000000" stroke="none" 
	d="
M538.068237,217.386658 
	C538.551697,216.944504 538.939758,216.938797 539.618896,216.943878 
	C539.915344,218.858505 539.920837,220.762360 539.876465,223.143051 
	C539.421082,223.755035 539.015625,223.890167 538.389832,224.040070 
	C538.104004,221.977585 538.038452,219.900345 538.068237,217.386658 
z"/>
<path fill="#0838FF" opacity="1.000000" stroke="none" 
	d="
M539.891235,231.289291 
	C540.333923,230.836426 540.794739,230.729095 541.600281,230.732483 
	C541.547058,231.525513 541.149109,232.207855 540.429932,232.945160 
	C540.042358,232.545029 539.975891,232.089920 539.891235,231.289291 
z"/>
<path fill="#0838FF" opacity="1.000000" stroke="none" 
	d="
M547.185303,230.265457 
	C547.108093,229.742935 547.237671,229.454788 547.603149,229.051788 
	C548.053650,229.393707 548.306946,229.867844 548.560181,230.341980 
	C548.157959,230.388794 547.755676,230.435608 547.185303,230.265457 
z"/>
<path fill="#0838FF" opacity="1.000000" stroke="none" 
	d="
M543.984009,209.669281 
	C543.832458,209.945435 543.663879,209.980804 543.247070,209.944916 
	C543.171570,209.468201 543.344421,209.062744 543.517273,208.657288 
	C543.667175,208.914368 543.817078,209.171432 543.984009,209.669281 
z"/>
<path fill="#0838FF" opacity="1.000000" stroke="none" 
	d="
M541.794922,223.469147 
	C541.768677,223.740829 541.472290,223.768127 541.325806,223.746445 
	C541.393188,223.548996 541.607117,223.373215 541.794922,223.469147 
z"/>
<path fill="#0838FF" opacity="1.000000" stroke="none" 
	d="
M546.519653,214.777222 
	C546.271240,214.609848 546.327148,214.296860 546.708374,213.850174 
	C546.929016,214.020569 546.859131,214.325623 546.519653,214.777222 
z"/>
</svg>